<svg data-v-423bf9ae="" xmlns="http://www.w3.org/2000/svg" viewBox="0 0 612 90" class="iconLeft"><!----><!----><!----><g data-v-423bf9ae="" id="50439ba1-450a-4027-930e-c00dba95d4b6" fill="#000000" transform="matrix(4.938271759983636,0,0,4.938271759983636,205.86210841744708,-64.5061762658634)"><path d="M5.38 27.44L5.10 28L0.84 28L0.84 27.57L2.16 26.53L2.16 18.05L0.70 17.56L0.98 17.00L5.24 17.00L5.24 17.43L3.91 18.47L3.91 26.94L5.38 27.44ZM15.79 27.45L15.51 28.01L12.85 28.01L12.85 23.30Q12.85 22.53 12.61 22.22Q12.38 21.91 11.76 21.91L11.76 21.91Q11.30 21.91 10.84 22.08Q10.39 22.25 9.77 22.72L9.77 22.72L9.77 26.96L11.03 27.45L10.75 28.01L6.85 28.01L6.85 27.58L8.09 26.60L8.09 22.64L6.85 21.91L6.85 21.48L9.24 20.30L9.70 22.12L11.69 20.54Q11.98 20.43 12.46 20.43L12.46 20.43Q13.41 20.43 13.97 21.01Q14.53 21.59 14.53 22.58L14.53 22.58L14.53 26.95L15.79 27.45ZM24.30 20.57L24.30 21L20.76 28L19.70 28L17.51 22.67L16.21 21.91L16.21 21.48L18.61 20.30L19.14 22.41L20.85 26.59L22.82 22.48L20.96 21.13L21.24 20.57L24.30 20.57ZM32.42 26.07L29.95 28.03Q29.39 28.14 28.60 28.14L28.60 28.14Q27.68 28.14 26.94 27.66Q26.21 27.17 25.80 26.35Q25.38 25.52 25.38 24.53L25.38 24.53Q25.38 23.45 26.04 22.50Q26.70 21.56 27.69 20.99Q28.67 20.43 29.60 20.43L29.60 20.43Q30.93 20.43 31.66 21.48Q32.40 22.53 32.40 24.25L32.40 24.25L27.22 24.25Q27.30 25.44 27.87 26.19Q28.43 26.95 29.41 26.95L29.41 26.95Q30.32 26.95 32.00 25.54L32.00 25.54L32.42 26.07ZM28.78 21.60Q27.27 21.60 27.20 23.67L27.20 23.67L30.48 23.67Q30.35 22.92 30.22 22.52Q30.09 22.12 29.76 21.86Q29.43 21.60 28.78 21.60L28.78 21.60ZM38.68 26.49Q38.68 26.10 38.25 25.77Q37.81 25.44 36.92 24.98L36.92 24.98Q36.19 24.60 35.74 24.32Q35.29 24.04 34.98 23.67Q34.66 23.30 34.66 22.86L34.66 22.86Q34.66 22.36 35.08 21.78Q35.50 21.21 36.12 20.82Q36.74 20.43 37.27 20.43L37.27 20.43Q37.91 20.43 38.76 20.59Q39.61 20.75 39.98 20.94L39.98 20.94L39.98 23.10L39.45 23.10Q39.00 22.23 38.42 21.75Q37.83 21.27 37.21 21.27L37.21 21.27Q36.78 21.27 36.51 21.50Q36.25 21.73 36.25 22.08L36.25 22.08Q36.25 22.51 36.70 22.86Q37.16 23.20 38.08 23.66L38.08 23.66Q38.79 24.02 39.23 24.29Q39.66 24.56 39.96 24.91Q40.26 25.27 40.26 25.70L40.26 25.70Q40.26 26.22 39.82 26.79Q39.38 27.36 38.75 27.75Q38.11 28.14 37.58 28.14L37.58 28.14Q36.89 28.14 35.95 27.98Q35 27.82 34.59 27.62L34.59 27.62L34.59 25.47L35.13 25.47Q35.62 26.33 36.29 26.82Q36.96 27.30 37.65 27.30L37.65 27.30Q38.11 27.30 38.40 27.06Q38.68 26.82 38.68 26.49L38.68 26.49ZM47.40 26.91L45.99 28.03Q45.67 28.14 45.21 28.14L45.21 28.14Q44.04 28.14 43.51 27.53Q42.97 26.92 42.97 25.65L42.97 25.65L42.97 21.56L41.45 21.56L41.45 20.99L44.11 17.89L44.65 17.89L44.65 20.99L47.17 20.99L47.17 21.56L44.65 21.56L44.65 25.82Q44.65 26.95 45.74 26.95L45.74 26.95Q46.03 26.95 46.31 26.82Q46.58 26.70 46.98 26.38L46.98 26.38L47.40 26.91ZM57.61 28.25L56.85 28L48.45 28L48.45 27.57L49.77 26.53L49.77 18.05L48.31 17.56L48.59 17.00L52.85 17.00L52.85 17.43L51.52 18.47L51.52 27.37L55.13 27.37L57.19 24.33L57.61 24.47L57.61 28.25ZM63.55 27.44L63.27 28L59.36 28L59.36 27.57L60.61 26.59L60.61 22.50L59.36 21.63L59.36 21.20L61.75 20.30L62.29 20.30L62.29 26.95L63.55 27.44ZM61.39 16.10Q61.81 16.10 62.08 16.41Q62.36 16.72 62.36 17.18L62.36 17.18Q62.36 17.50 62.16 17.79Q61.96 18.07 61.67 18.24Q61.38 18.41 61.10 18.41L61.10 18.41Q60.68 18.41 60.40 18.10Q60.13 17.79 60.13 17.33L60.13 17.33Q60.13 17.01 60.33 16.72Q60.52 16.44 60.82 16.27Q61.11 16.10 61.39 16.10L61.39 16.10ZM73.75 27.45L73.47 28.01L70.81 28.01L70.81 23.30Q70.81 22.53 70.57 22.22Q70.34 21.91 69.72 21.91L69.72 21.91Q69.26 21.91 68.80 22.08Q68.35 22.25 67.73 22.72L67.73 22.72L67.73 26.96L68.99 27.45L68.71 28.01L64.81 28.01L64.81 27.58L66.05 26.60L66.05 22.64L64.81 21.91L64.81 21.48L67.20 20.30L67.66 22.12L69.65 20.54Q69.94 20.43 70.42 20.43L70.42 20.43Q71.37 20.43 71.93 21.01Q72.49 21.59 72.49 22.58L72.49 22.58L72.49 26.95L73.75 27.45ZM82.12 26.07L79.65 28.03Q79.09 28.14 78.30 28.14L78.30 28.14Q77.38 28.14 76.64 27.66Q75.91 27.17 75.50 26.35Q75.08 25.52 75.08 24.53L75.08 24.53Q75.08 23.45 75.74 22.50Q76.40 21.56 77.39 20.99Q78.37 20.43 79.30 20.43L79.30 20.43Q80.63 20.43 81.36 21.48Q82.10 22.53 82.10 24.25L82.10 24.25L76.92 24.25Q77 25.44 77.57 26.19Q78.13 26.95 79.11 26.95L79.11 26.95Q80.02 26.95 81.70 25.54L81.70 25.54L82.12 26.07ZM78.48 21.60Q76.97 21.60 76.90 23.67L76.90 23.67L80.18 23.67Q80.05 22.92 79.92 22.52Q79.79 22.12 79.46 21.86Q79.13 21.60 78.48 21.60L78.48 21.60Z"></path></g><defs data-v-423bf9ae=""><linearGradient data-v-423bf9ae="" gradientTransform="rotate(25)" id="f7256856-129e-4ecc-a929-a050475d568b" x1="0%" y1="0%" x2="100%" y2="0%"><stop data-v-423bf9ae="" offset="0%" style="stop-color: rgb(66, 30, 86); stop-opacity: 1;"></stop><stop data-v-423bf9ae="" offset="100%" style="stop-color: rgb(188, 96, 131); stop-opacity: 1;"></stop></linearGradient></defs><g data-v-423bf9ae="" id="682a1571-6738-4aad-a7b6-a9d8e252a4dd" transform="matrix(2.136854180852457,0,0,2.136854180852457,-1.4552273898057138,-56.620043534690694)" stroke="none" fill="url(#f7256856-129e-4ecc-a929-a050475d568b)"><path clip-rule="evenodd" d="M82.84 39.78c.394.739.645 1.619.754 2.638.049.448.074 1.252.074 2.41a6.8 6.8 0 01-.091.991c-.019.461-.09 1.122-.211 1.983a34.97 34.97 0 00-.173 1.346c.024.333.073.58.146.737.079.176.373.552.882 1.128.268.285.749.497 1.446.636.824.158 1.304.273 1.438.346.436.226.806.558 1.109 1.001.17.449.284.831.347 1.146.005.019.038.276.099.773.098.576.221 1.107.372 1.592.079.248.169.479.265.691a.89.89 0 01-.228.027c-1.363 0-2.422-.561-3.175-1.684-.17-.26-.397-.684-.682-1.272l-.173-.336a.151.151 0 01-.009-.037c-.019-.334-.37-.8-1.056-1.401-.818-.715-1.261-1.127-1.328-1.236a4.257 4.257 0 01-.609-1.355 4.922 4.922 0 01-.091-.663v-.083l-.017-.254a3.498 3.498 0 01-.011-.265c0-.363.049-.918.146-1.665.036-.297.066-.561.091-.791.066-.46.118-.942.153-1.445a10.323 10.323 0 00-.463-2.366c-.612-1.916-1.652-2.874-3.121-2.874-.272 0-.533.055-.78.164.163 1.485.245 2.304.245 2.456 0 .618-.177 1.573-.528 2.865-.352 1.279-.527 2.235-.527 2.865 0 1.164.467 2.341 1.401 3.529.563.704.889 1.124.973 1.265.291.448.438.879.438 1.292 0 .411-.503 1.7-1.51 3.865a146.492 146.492 0 01-1.656 3.438 6.524 6.524 0 00-.601 2.583 29.1 29.1 0 00.018 2.002c-.023.618-.218 1.052-.581 1.301-.438.304-1.24.455-2.41.455-.758 0-1.507-.062-2.247-.182-.94-.159-1.41-.364-1.41-.619 0-.563.279-1.389.837-2.475.321-.618.934-1.676 1.838-3.174a64.182 64.182 0 002.001-3.575c.006-.072.019-.146.036-.219.012-.103.018-.202.018-.299 0-.449-.212-.855-.636-1.22-.243-.206-.725-.506-1.446-.9a15.507 15.507 0 01-.791-.445 4.343 4.343 0 01-.392.847c-.321.521-.857 1.121-1.61 1.8-.903.771-1.582 1.38-2.037 1.829-.801.782-1.429 1.576-1.883 2.383a16.551 16.551 0 00-1.501 3.446 44.606 44.606 0 00-.573 2.129c-.193.534-.507.895-.937 1.083-.479.194-1.337.29-2.574.29h-1.792c-.886-.036-1.328-.169-1.328-.399 0-.66.428-1.606 1.282-2.838.588-.843 1.529-2.007 2.82-3.493a218.542 218.542 0 002.329-2.692l.118-.137c.169-.2.293-.354.372-.463.177-.219.333-.425.473-.619-.254-1.995-1.264-3.29-3.028-3.884-.982-.328-2.599-.491-4.848-.491-.485 0-1.468.173-2.947.519-1.39.351-2.102.497-2.139.437-.703.242-1.238.421-1.609.536-.987.315-1.716.474-2.183.474a6.57 6.57 0 01-1.811-.281c-.648-.189-1.134-.283-1.455-.283-.096 0-.229.052-.396.155-1.695 2.634-3.184 4.828-4.466 6.585.103.274.234.505.396.691.321.37.804.592 1.447.664.351.037.833.069 1.446.1.442.098.663.373.663.828 0 .4-.163 1.371-.491 2.911-.351 1.637-.609 2.455-.772 2.455-.655 0-1.701-.869-3.138-2.61-.75-.902-1.326-1.647-1.728-2.237-.396.465-.759.863-1.092 1.196l-.191.559c-.315.916-.631 1.525-.946 1.828-1.091.146-1.892.252-2.401.318-.91.115-1.677.173-2.302.173-.606 0-.909-.175-.909-.527 0-.145.761-1.233 2.283-3.265 1.516-2.031 2.273-3.084 2.273-3.156 0-.164-.121-.37-.363-.618-.024-.024-.289-.264-.792-.719-.77-.698-1.155-1.316-1.155-1.855 0-.4.197-.822.591-1.265.218-.237.652-.622 1.301-1.156.619-.49 1.055-.891 1.31-1.2.394-.466.591-.934.591-1.4 0-.442-1.477-1.355-4.43-2.738-2.893-1.358-4.718-2.037-5.476-2.037-.449 0-.822.213-1.119.637-.279.394-.419.85-.419 1.364 0 .23.07.649.209 1.255.14.619.209 1.067.209 1.347 0 .643-.376 1.285-1.128 1.928-.758.655-1.553.982-2.383.982-.297 0-.782-.388-1.455-1.163-.376-.389-.88-.914-1.51-1.574-1.613-1.686-2.638-2.684-3.074-2.992a10.753 10.753 0 01-2.593-2.711c-.491-.734-.815-1.388-.973-1.965-.467.206-.931.388-1.392.546-1.419.491-2.701.736-3.848.736-1.109 0-2.238-.569-3.383-1.71-1.013-1-1.628-1.952-1.847-2.855.606.455 1.355.897 2.247 1.328 1.171.563 2.116.846 2.838.846.716 0 1.716-.386 3.002-1.155a25.355 25.355 0 001.946-1.301v-.064c-1.849.194-3.711-.293-5.585-1.464-1.868-1.17-3.071-2.601-3.611-4.293 1.552 1.225 2.665 2.016 3.338 2.374 1.007.521 2.128.782 3.366.782.716 0 1.683-.094 2.901-.282.764-.115 3.984-1.713 9.66-4.793a232.64 232.64 0 011.828-1l.027-.027a89.52 89.52 0 012.165-2.056c3.02-2.753 5.321-4.129 6.903-4.129.958 0 1.998.254 3.12.764.673.309 1.75.873 3.229 1.691 1.456.758 2.853 1.322 4.193 1.692 1.844.516 3.859.773 6.049.773 1.212 0 3.574-.27 7.085-.81 3.523-.54 5.713-.81 6.568-.81 3.279 0 6.356.746 9.232 2.238 1.952 1.001 3.559 2.199 4.821 3.593 3.46.45 5.732 1.689 6.818 3.715z"></path></g><!----></svg>